<!-- Generator: Adobe Illustrator 24.0.1, SVG Export Plug-In  -->
<svg version="1.1" xmlns="http://www.w3.org/2000/svg" xmlns:xlink="http://www.w3.org/1999/xlink" x="0px" y="0px" width="59.5px"
	 height="34.5px" viewBox="0 0 59.5 34.5" style="enable-background:new 0 0 59.5 34.5;" xml:space="preserve">
<style type="text/css">
	.st0{fill-rule:evenodd;clip-rule:evenodd;fill:#517BDB;}
</style>
<defs>
</defs>
<path class="st0" d="M53.5,0h-6.3c-0.7,2.5-3,4.3-5.8,4.3c-2.7,0-5-1.8-5.8-4.3H6C2.7,0,0,2.7,0,6v22.5c0,3.3,2.7,6,6,6h29.6
	c0.7-2.5,3-4.3,5.8-4.3c2.7,0,5,1.8,5.8,4.3h6.3c3.3,0,6-2.7,6-6V6C59.5,2.7,56.8,0,53.5,0z M41.4,26.3c-1.9,0-3.5-1.6-3.5-3.5
	s1.6-3.5,3.5-3.5s3.5,1.6,3.5,3.5S43.4,26.3,41.4,26.3z M41.4,15.1c-1.9,0-3.5-1.6-3.5-3.5s1.6-3.5,3.5-3.5s3.5,1.6,3.5,3.5
	S43.4,15.1,41.4,15.1z"/>
</svg>
