<!-- Generator: Adobe Illustrator 24.0.1, SVG Export Plug-In  -->
<svg version="1.1" xmlns="http://www.w3.org/2000/svg" xmlns:xlink="http://www.w3.org/1999/xlink" x="0px" y="0px" width="108px"
	 height="74px" viewBox="0 0 108 74" style="enable-background:new 0 0 108 74;" xml:space="preserve">
<style type="text/css">
	.st0{fill-rule:evenodd;clip-rule:evenodd;fill:#789FF7;}
	.st1{fill-rule:evenodd;clip-rule:evenodd;fill:#B9CFFF;}
	.st2{fill-rule:evenodd;clip-rule:evenodd;fill:#517BDB;}
	.st3{fill:#FFFFFF;}
</style>
<defs>
</defs>
<g>
	<path class="st0" d="M93.3,74C93.3,74,93.3,74,93.3,74c0-6.4,5.1-11.5,11.4-11.5v-40c-6.3,0-11.4-5.2-11.4-11.5c0,0,0,0,0,0h-81
		c0,0,0,0,0,0c0,6.3-5.1,11.5-11.5,11.5c0,0-0.1,0-0.1,0v40c0,0,0.1,0,0.1,0c6.3,0,11.5,5.1,11.5,11.5c0,0,0,0,0,0.1"/>
</g>
<path class="st1" d="M0.7,22.5c0,0,0.1,0,0.1,0c6.3,0,11.5-5.1,11.5-11.5c0,0,0,0,0,0h60.3l-0.2-1.5c-0.1-1,0.6-1.9,1.6-2.1
	c1-0.1,1.9,0.6,2.1,1.6l0.2,1.9h17c0,0,0,0,0,0c0,6.3,5.1,11.4,11.4,11.5v28.1c1-0.5,2.1-0.8,3.3-0.9l-4.8-39.7
	C97,10.8,91.3,6.3,90.6,0c0,0,0,0,0,0L10.1,9.6c0,0,0,0,0,0c0.8,6.3-3.7,12-10,12.8c0,0-0.1,0-0.1,0l0.7,6V22.5z"/>
<path class="st2" d="M21.7,29h37v11.7h-37V29z"/>
<path class="st2" d="M21.7,45.3h22V57h-22V45.3z"/>
<g>
	<path class="st3" d="M75.7,16.1c-1.3,0-2.4,1.1-2.4,2.4v10.3c0,1.3,1.1,2.4,2.4,2.4c1.3,0,2.4-1.1,2.4-2.4V18.5
		C78.1,17.2,77,16.1,75.7,16.1z"/>
	<path class="st3" d="M75.7,35.3c-1.3,0-2.4,1.1-2.4,2.4v10.3c0,1.3,1.1,2.4,2.4,2.4c1.3,0,2.4-1.1,2.4-2.4V37.6
		C78.1,36.3,77,35.3,75.7,35.3z"/>
	<path class="st3" d="M75.7,54.4c-1.3,0-2.4,1.1-2.4,2.4v10.3c0,1.3,1.1,2.4,2.4,2.4c1.3,0,2.4-1.1,2.4-2.4V56.8
		C78.1,55.5,77,54.4,75.7,54.4z"/>
</g>
</svg>
