<!-- Generator: Adobe Illustrator 24.0.1, SVG Export Plug-In  -->
<svg version="1.1" xmlns="http://www.w3.org/2000/svg" xmlns:xlink="http://www.w3.org/1999/xlink" x="0px" y="0px" width="390.7px"
	 height="83.9px" viewBox="0 0 390.7 83.9" style="enable-background:new 0 0 390.7 83.9;" xml:space="preserve">
<style type="text/css">
	.st0{fill-rule:evenodd;clip-rule:evenodd;fill:#243D76;}
	.st1{fill:#243D76;}
	.st2{fill:#E53327;}
</style>
<defs>
</defs>
<path class="st0" d="M390.31,27.84h-6.66V49.2h-27.84v6.47h31.95v27.64h-7.84v-2.94h-23.91v3.53h-7.84V27.84h-4.51v-14.7h21.17
	c-0.78-2.55-2.16-5.68-3.53-8.23l7.84-2.35c1.76,2.74,3.53,6.47,4.31,9.02l-4.7,1.57h21.95v14.7H390.31z M355.81,73.31h23.91V62.53
	h-23.91V73.31z M355.81,42.73H376v-9.61h-20.19V42.73z M381.88,20.19H351.1v6.47h30.78V20.19z M329.74,33.91
	c1.18-2.74,2.55-6.66,3.72-10.59h-9.61c-1.96,7.06-4.31,13.53-7.25,18.43c-1.18-1.37-4.31-4.12-6.08-5.29
	c4.9-8.04,7.84-20.78,9.41-33.32l7.84,1.57c-0.59,3.92-1.37,7.64-2.16,11.37h10.59l1.18-0.39l5.49,1.57
	c-1.76,6.47-4.31,13.92-6.66,18.82L329.74,33.91z M297.59,73.7c-10.19-7.45-21.17-19.8-29.6-32.54V83.9h-9.02V44.3
	c-8.23,12.55-19.01,23.33-30.38,29.99c-1.57-1.96-4.31-5.29-6.27-7.06c13.53-6.86,26.85-20.39,34.5-34.3h-31.36v-8.04h33.72V3.14
	h9.02v21.76h32.74v8.04h-29.4c7.84,12.74,21.17,26.27,32.74,33.52C302.1,68.02,299.16,71.35,297.59,73.7z M272.7,9.21l6.08-5.1
	c5.1,3.53,11.96,8.82,15.29,12.35l-6.27,5.68C284.46,18.62,277.79,13.13,272.7,9.21z M198.4,81.35h-34.5
	c-11.96,0-17.45-4.31-17.45-10.98c0-5.29,1.57-10.59,34.5-29.8h-35.87v-7.64h50.57l1.76-0.2l5.88,4.31
	c-0.39,0.39-0.98,0.78-1.76,1.18c-43.71,23.91-46.65,28.42-46.65,31.56c0,2.55,3.33,3.72,8.23,3.72h36.26
	c4.7,0,6.27-1.76,6.86-12.94c2.16,1.37,5.1,2.35,7.64,2.74C212.52,78.6,208.79,81.35,198.4,81.35z M194.68,27.25h-8.43V19.8H164.3
	v7.45h-8.43V19.8h-19.41v-7.84h19.41V2.94h8.43v9.02h21.76V2.94h8.43v9.02h18.82v7.84h-18.62V27.25z M322.49,34.7h7.84v32.74
	l9.41-6.66c0.39,2.35,1.57,5.49,2.16,7.06c-16.07,11.57-18.62,13.53-19.99,15.29c-0.78-1.57-3.33-4.31-4.7-5.49
	c1.96-1.57,5.29-5.1,5.29-9.8L322.49,34.7L322.49,34.7z"/>
<g>
	<path class="st1" d="M42.79,60.22H17.73l-6.17,20.57H0L23.89,8.71h13.12l23.89,72.08H48.87L42.79,60.22z M40.05,51.31l-2.84-9.7
		c-2.45-7.83-4.6-15.86-6.86-23.99h-0.39c-2.06,8.23-4.31,16.16-6.66,23.99l-2.94,9.7H40.05z"/>
	<path class="st1" d="M70.41,8.71h11.36v72.08H70.41V8.71z"/>
</g>
<path class="st2" d="M102.21,17.21H90.57v-4.82h11.64V0h5.05v12.39h11.64v4.82h-11.64V29.6h-5.05V17.21z"/>
</svg>
