<!-- Generator: Adobe Illustrator 24.0.1, SVG Export Plug-In  -->
<svg version="1.1" xmlns="http://www.w3.org/2000/svg" xmlns:xlink="http://www.w3.org/1999/xlink" x="0px" y="0px" width="65px"
	 height="70.9px" viewBox="0 0 65 70.9" style="enable-background:new 0 0 65 70.9;" xml:space="preserve">
<style type="text/css">
	.st0{fill-rule:evenodd;clip-rule:evenodd;fill:#BEBEBE;}
</style>
<defs>
</defs>
<polygon class="st0" points="59.9,20.3 34.4,0.1 34.4,0 34.3,0 30.9,0 30.7,0 30.8,0.1 5.2,20.3 8.8,20.3 32.6,1.5 56.3,20.3 "/>
<path class="st0" d="M60,19.9H5l-5,5.5V65l5,5.9h55l5-5.9V25.2L60,19.9z M58,61.1l-3,2.8H9l-2-2.5v-9.5c0,0,7.9,1,16-1
	c6.3-1.5,13.1-6.9,19-8c10.5-1.9,16-1,16-1V61.1z"/>
</svg>
