<!-- Generator: Adobe Illustrator 24.0.1, SVG Export Plug-In  -->
<svg version="1.1" xmlns="http://www.w3.org/2000/svg" xmlns:xlink="http://www.w3.org/1999/xlink" x="0px" y="0px" width="89.5px"
	 height="84.5px" viewBox="0 0 89.5 84.5" style="enable-background:new 0 0 89.5 84.5;" xml:space="preserve">
<style type="text/css">
	.st0{fill-rule:evenodd;clip-rule:evenodd;fill:#789FF7;}
	.st1{fill-rule:evenodd;clip-rule:evenodd;fill:#FFFFFF;}
	.st2{fill-rule:evenodd;clip-rule:evenodd;fill:#B9CFFF;}
	.st3{fill-rule:evenodd;clip-rule:evenodd;fill:#5983E3;}
	.st4{fill-rule:evenodd;clip-rule:evenodd;fill:#436BC7;}
</style>
<defs>
</defs>
<path class="st0" d="M18.1,19.7c-7.3,6.9-21.7,23.5-17.2,40c5,17.9,28.3,26,45.5,24.7c21.4-1.6,40.4-18.1,38.7-26.6
	c-1.9-9.6-12.9-1.4-14-11.1c-0.5-4.9,9.8-8.9,15-15c5-5.9,4.8-22-2.2-26.6C68.8-4.7,39.6-0.7,18.1,19.7z"/>
<path class="st1" d="M49.6,46.3c5.9-1.8,11.7,0,12.9,3.9c1.2,4-2.7,8.6-8.6,10.4c-5.9,1.8-11.7,0-12.9-3.9
	C39.8,52.7,43.6,48.1,49.6,46.3z"/>
<path class="st2" d="M58.3,7.5c4.9-1,9.4,1,10.2,4.6c0.7,3.6-2.6,7.3-7.5,8.3c-4.9,1-9.4-1-10.2-4.6C50.1,12.2,53.5,8.5,58.3,7.5z"
	/>
<path class="st3" d="M30,20.6c4.2-2.6,9.2-2.3,11.1,0.8c1.9,3.1,0.1,7.7-4.2,10.4c-4.2,2.6-9.2,2.3-11.1-0.8
	C23.9,27.8,25.8,23.2,30,20.6z"/>
<path class="st4" d="M11.6,43.9c2.5-4.3,7.1-6.3,10.3-4.4c3.1,1.9,3.6,6.8,1.1,11.1c-2.5,4.3-7.1,6.3-10.3,4.4
	C9.5,53.2,9,48.2,11.6,43.9z"/>
</svg>
