<!-- Generator: Adobe Illustrator 24.0.1, SVG Export Plug-In  -->
<svg version="1.1" xmlns="http://www.w3.org/2000/svg" xmlns:xlink="http://www.w3.org/1999/xlink" x="0px" y="0px"
	 width="199.32px" height="42.8px" viewBox="0 0 199.32 42.8" style="enable-background:new 0 0 199.32 42.8;" xml:space="preserve"
	>
<style type="text/css">
	.st0{fill-rule:evenodd;clip-rule:evenodd;fill:#243D76;}
	.st1{fill:#243D76;}
	.st2{fill:#E53327;}
</style>
<defs>
</defs>
<path class="st0" d="M199.12,14.2h-3.4v10.9h-14.2v3.3h16.3v14.1h-4V41h-12.2v1.8h-4V14.2h-2.3V6.7h10.8c-0.4-1.3-1.1-2.9-1.8-4.2
	l4-1.2c0.9,1.4,1.8,3.3,2.2,4.6l-2.4,0.8h11.2v7.5H199.12z M181.52,37.4h12.2v-5.5h-12.2V37.4z M181.52,21.8h10.3v-4.9h-10.3V21.8z
	 M194.82,10.3h-15.7v3.3h15.7V10.3z M168.22,17.3c0.6-1.4,1.3-3.4,1.9-5.4h-4.9c-1,3.6-2.2,6.9-3.7,9.4c-0.6-0.7-2.2-2.1-3.1-2.7
	c2.5-4.1,4-10.6,4.8-17l4,0.8c-0.3,2-0.7,3.9-1.1,5.8h5.4l0.6-0.2l2.8,0.8c-0.9,3.3-2.2,7.1-3.4,9.6L168.22,17.3z M151.82,37.6
	c-5.2-3.8-10.8-10.1-15.1-16.6v21.8h-4.6V22.6c-4.2,6.4-9.7,11.9-15.5,15.3c-0.8-1-2.2-2.7-3.2-3.6c6.9-3.5,13.7-10.4,17.6-17.5h-16
	v-4.1h17.2V1.6h4.6v11.1h16.7v4.1h-15c4,6.5,10.8,13.4,16.7,17.1C154.12,34.7,152.62,36.4,151.82,37.6z M139.12,4.7l3.1-2.6
	c2.6,1.8,6.1,4.5,7.8,6.3l-3.2,2.9C145.12,9.5,141.72,6.7,139.12,4.7z M101.22,41.5h-17.6c-6.1,0-8.9-2.2-8.9-5.6
	c0-2.7,0.8-5.4,17.6-15.2h-18.3v-3.9h25.8l0.9-0.1l3,2.2c-0.2,0.2-0.5,0.4-0.9,0.6c-22.3,12.2-23.8,14.5-23.8,16.1
	c0,1.3,1.7,1.9,4.2,1.9h18.5c2.4,0,3.2-0.9,3.5-6.6c1.1,0.7,2.6,1.2,3.9,1.4C108.42,40.1,106.52,41.5,101.22,41.5z M99.32,13.9h-4.3
	v-3.8h-11.2v3.8h-4.3v-3.8h-9.9v-4h9.9V1.5h4.3v4.6h11.1V1.5h4.3v4.6h9.6v4h-9.5V13.9z M164.52,17.7h4v16.7l4.8-3.4
	c0.2,1.2,0.8,2.8,1.1,3.6c-8.2,5.9-9.5,6.9-10.2,7.8c-0.4-0.8-1.7-2.2-2.4-2.8c1-0.8,2.7-2.6,2.7-5L164.52,17.7L164.52,17.7z"/>
<g>
	<path class="st1" d="M21.83,30.72H9.04L5.9,41.21H0L12.19,4.44h6.69l12.19,36.77h-6.14L21.83,30.72z M20.43,26.18l-1.45-4.95
		c-1.25-4-2.35-8.09-3.5-12.24h-0.2c-1.05,4.2-2.2,8.24-3.4,12.24l-1.5,4.95H20.43z"/>
	<path class="st1" d="M35.92,4.44h5.8v36.77h-5.8V4.44z"/>
</g>
<path class="st2" d="M52.14,8.78H46.2V6.32h5.94V0h2.58v6.32h5.94v2.46h-5.94v6.32h-2.58V8.78z"/>
</svg>
